# xmcd
#
# Track frame offsets: 
#        150
#        16073
#        30419
#        43512
#        60566
#        73845
#        86192
#        104023
#        115167
#        136881
#        153576
#        169345
#        186544
#        199312
#        215552
#        229271
#        241523
#        251972
#        264372
#        278180
#        292875
#
# Disc length: 4080 seconds
#
# Revision: 0
# Processed by: cddbd v1.5.2PL0 Copyright (c) Steve Scherf et al.
# Submitted via: ExactAudioCopy v1.1
#
DISCID=390fee15
DTITLE=Various Artist - Spring Break 2019 - CD 3
DYEAR=2019
DGENRE=Pop
TTITLE0=DJ Snake Feat. Selena Gomez, Ozuna and Cardi B - Taki Taki
TTITLE1=Alvaro Soler - Loca
TTITLE2=Gers Pardoel Feat. Jayh - Zomer
TTITLE3=The Blockparty and Esko Feat. Mouad Locos, JoeyAK, Young Ellens 
TTITLE3=& Chivv - Huts
TTITLE4=Wiley X Sean Paul X Stefflon Don - Idris Elba - Boasty
TTITLE5=Netsky Feat. Bazzi and Lil Wayne - I Don't Even Know You Anymore
TTITLE6=Pedro Capo X Farruko - Calma (Remix)
TTITLE7=Post Malone - Wow.
TTITLE8=21 Savage - A Lot
TTITLE9=Clean Bandit Feat. Demi Lovato - Solo
TTITLE10=Dua Lipa - New Rules
TTITLE11=Little Mix Feat. Nicki Minaj - Woman Like Me
TTITLE12=Aya Nakamura - Djadja
TTITLE13=Kris Kross Amsterdam, Maan and Tabitha Feat. Bizzey - Hij Is Va
TTITLE13=n Mij
TTITLE14=Dimitri Vegas and Like Mike X Frenna - Daar Gaat Ze (Nooit Verd
TTITLE14=iend)
TTITLE15=Sevn Alias Feat. Mula B and Trobeats - Big Man
TTITLE16=Chivv and Diquenza - Ewa Ewa
TTITLE17=Jebroer - Polizei
TTITLE18=Frenna Feat. Mula B - Viraal
TTITLE19=Seeb X Bastille - Grip
TTITLE20=Ariana Grande - 7 Rings
EXTD=
EXTT0=
EXTT1=
EXTT2=
EXTT3=
EXTT4=
EXTT5=
EXTT6=
EXTT7=
EXTT8=
EXTT9=
EXTT10=
EXTT11=
EXTT12=
EXTT13=
EXTT14=
EXTT15=
EXTT16=
EXTT17=
EXTT18=
EXTT19=
EXTT20=
PLAYORDER=
